<?xml version="1.0" encoding="UTF-8" standalone="no"?>
<!DOCTYPE svg PUBLIC "-//W3C//DTD SVG 1.1//EN"
 "http://www.w3.org/Graphics/SVG/1.1/DTD/svg11.dtd">
<!-- Generated by graphviz version 2.38.0 (20140413.2041)
 -->
<!-- Title: controllers_diagram Pages: 1 -->
<svg width="752pt" height="735pt"
 viewBox="0.00 0.00 751.50 735.00" xmlns="http://www.w3.org/2000/svg" xmlns:xlink="http://www.w3.org/1999/xlink">
<g id="graph0" class="graph" transform="scale(1 1) rotate(0) translate(270 446)">
<title>controllers_diagram</title>
<polygon fill="none" stroke="none" points="-270,289 -270,-446 481.5,-446 481.5,289 -270,289"/>
<!-- _diagram_info -->
<g id="node1" class="node"><title>_diagram_info</title>
<text text-anchor="start" x="8" y="164.4" font-family="Times,serif" font-size="13.00">Controllers diagram</text>
<text text-anchor="start" x="8" y="178.4" font-family="Times,serif" font-size="13.00">Date: Jun 22 2016 &#45; 16:56</text>
<text text-anchor="start" x="8" y="192.4" font-family="Times,serif" font-size="13.00">Migration version: 20160611205355</text>
<text text-anchor="start" x="8" y="206.4" font-family="Times,serif" font-size="13.00">Generated by RailRoady 1.4.2</text>
<text text-anchor="start" x="8" y="220.4" font-family="Times,serif" font-size="13.00">http://railroady.prestonlee.com</text>
</g>
<!-- ApplicationController -->
<g id="node2" class="node"><title>ApplicationController</title>
<path fill="none" stroke="black" d="M316,-210C316,-210 432,-210 432,-210 438,-210 444,-216 444,-222 444,-222 444,-292 444,-292 444,-298 438,-304 432,-304 432,-304 316,-304 316,-304 310,-304 304,-298 304,-292 304,-292 304,-222 304,-222 304,-216 310,-210 316,-210"/>
<text text-anchor="middle" x="374" y="-288.8" font-family="Times,serif" font-size="14.00">ApplicationController</text>
<polyline fill="none" stroke="black" points="304,-281 444,-281 "/>
<polyline fill="none" stroke="black" points="304,-257 444,-257 "/>
<polyline fill="none" stroke="black" points="304,-233 444,-233 "/>
<text text-anchor="start" x="312" y="-217.8" font-family="Times,serif" font-size="14.00">_layout</text>
</g>
<!-- DashboardController -->
<g id="node3" class="node"><title>DashboardController</title>
<path fill="none" stroke="black" d="M354.5,-342.5C354.5,-342.5 465.5,-342.5 465.5,-342.5 471.5,-342.5 477.5,-348.5 477.5,-354.5 477.5,-354.5 477.5,-423.5 477.5,-423.5 477.5,-429.5 471.5,-435.5 465.5,-435.5 465.5,-435.5 354.5,-435.5 354.5,-435.5 348.5,-435.5 342.5,-429.5 342.5,-423.5 342.5,-423.5 342.5,-354.5 342.5,-354.5 342.5,-348.5 348.5,-342.5 354.5,-342.5"/>
<text text-anchor="middle" x="410" y="-420.3" font-family="Times,serif" font-size="14.00">DashboardController</text>
<polyline fill="none" stroke="black" points="342.5,-412.5 477.5,-412.5 "/>
<text text-anchor="start" x="350.5" y="-397.3" font-family="Times,serif" font-size="14.00">index</text>
<polyline fill="none" stroke="black" points="342.5,-389.5 477.5,-389.5 "/>
<polyline fill="none" stroke="black" points="342.5,-365.5 477.5,-365.5 "/>
<text text-anchor="start" x="350.5" y="-350.3" font-family="Times,serif" font-size="14.00">_layout</text>
</g>
<!-- DealsController -->
<g id="node4" class="node"><title>DealsController</title>
<path fill="none" stroke="black" d="M-254,265.5C-254,265.5 -172,265.5 -172,265.5 -166,265.5 -160,259.5 -160,253.5 -160,253.5 -160,64.5 -160,64.5 -160,58.5 -166,52.5 -172,52.5 -172,52.5 -254,52.5 -254,52.5 -260,52.5 -266,58.5 -266,64.5 -266,64.5 -266,253.5 -266,253.5 -266,259.5 -260,265.5 -254,265.5"/>
<text text-anchor="middle" x="-213" y="67.7" font-family="Times,serif" font-size="14.00">DealsController</text>
<polyline fill="none" stroke="black" points="-266,75.5 -160,75.5 "/>
<text text-anchor="start" x="-258" y="90.7" font-family="Times,serif" font-size="14.00">create</text>
<text text-anchor="start" x="-258" y="105.7" font-family="Times,serif" font-size="14.00">destroy</text>
<text text-anchor="start" x="-258" y="120.7" font-family="Times,serif" font-size="14.00">edit</text>
<text text-anchor="start" x="-258" y="135.7" font-family="Times,serif" font-size="14.00">index</text>
<text text-anchor="start" x="-258" y="150.7" font-family="Times,serif" font-size="14.00">new</text>
<text text-anchor="start" x="-258" y="165.7" font-family="Times,serif" font-size="14.00">show</text>
<text text-anchor="start" x="-258" y="180.7" font-family="Times,serif" font-size="14.00">update</text>
<polyline fill="none" stroke="black" points="-266,188.5 -160,188.5 "/>
<polyline fill="none" stroke="black" points="-266,212.5 -160,212.5 "/>
<text text-anchor="start" x="-258" y="227.7" font-family="Times,serif" font-size="14.00">_layout</text>
<text text-anchor="start" x="-258" y="242.7" font-family="Times,serif" font-size="14.00">deal_params</text>
<text text-anchor="start" x="-258" y="257.7" font-family="Times,serif" font-size="14.00">set_deal</text>
</g>
<!-- GroupitemsController -->
<g id="node5" class="node"><title>GroupitemsController</title>
<path fill="none" stroke="black" d="M126,113.5C126,113.5 242,113.5 242,113.5 248,113.5 254,107.5 254,101.5 254,101.5 254,-87.5 254,-87.5 254,-93.5 248,-99.5 242,-99.5 242,-99.5 126,-99.5 126,-99.5 120,-99.5 114,-93.5 114,-87.5 114,-87.5 114,101.5 114,101.5 114,107.5 120,113.5 126,113.5"/>
<text text-anchor="middle" x="184" y="-84.3" font-family="Times,serif" font-size="14.00">GroupitemsController</text>
<polyline fill="none" stroke="black" points="114,-76.5 254,-76.5 "/>
<text text-anchor="start" x="122" y="-61.3" font-family="Times,serif" font-size="14.00">create</text>
<text text-anchor="start" x="122" y="-46.3" font-family="Times,serif" font-size="14.00">destroy</text>
<text text-anchor="start" x="122" y="-31.3" font-family="Times,serif" font-size="14.00">edit</text>
<text text-anchor="start" x="122" y="-16.3" font-family="Times,serif" font-size="14.00">index</text>
<text text-anchor="start" x="122" y="-1.3" font-family="Times,serif" font-size="14.00">new</text>
<text text-anchor="start" x="122" y="13.7" font-family="Times,serif" font-size="14.00">show</text>
<text text-anchor="start" x="122" y="28.7" font-family="Times,serif" font-size="14.00">update</text>
<polyline fill="none" stroke="black" points="114,36.5 254,36.5 "/>
<polyline fill="none" stroke="black" points="114,60.5 254,60.5 "/>
<text text-anchor="start" x="122" y="75.7" font-family="Times,serif" font-size="14.00">_layout</text>
<text text-anchor="start" x="122" y="90.7" font-family="Times,serif" font-size="14.00">groupitem_params</text>
<text text-anchor="start" x="122" y="105.7" font-family="Times,serif" font-size="14.00">set_groupitem</text>
</g>
<!-- GroupsController -->
<g id="node6" class="node"><title>GroupsController</title>
<path fill="none" stroke="black" d="M297.5,284.5C297.5,284.5 388.5,284.5 388.5,284.5 394.5,284.5 400.5,278.5 400.5,272.5 400.5,272.5 400.5,83.5 400.5,83.5 400.5,77.5 394.5,71.5 388.5,71.5 388.5,71.5 297.5,71.5 297.5,71.5 291.5,71.5 285.5,77.5 285.5,83.5 285.5,83.5 285.5,272.5 285.5,272.5 285.5,278.5 291.5,284.5 297.5,284.5"/>
<text text-anchor="middle" x="343" y="86.7" font-family="Times,serif" font-size="14.00">GroupsController</text>
<polyline fill="none" stroke="black" points="285.5,94.5 400.5,94.5 "/>
<text text-anchor="start" x="293.5" y="109.7" font-family="Times,serif" font-size="14.00">create</text>
<text text-anchor="start" x="293.5" y="124.7" font-family="Times,serif" font-size="14.00">destroy</text>
<text text-anchor="start" x="293.5" y="139.7" font-family="Times,serif" font-size="14.00">edit</text>
<text text-anchor="start" x="293.5" y="154.7" font-family="Times,serif" font-size="14.00">index</text>
<text text-anchor="start" x="293.5" y="169.7" font-family="Times,serif" font-size="14.00">new</text>
<text text-anchor="start" x="293.5" y="184.7" font-family="Times,serif" font-size="14.00">show</text>
<text text-anchor="start" x="293.5" y="199.7" font-family="Times,serif" font-size="14.00">update</text>
<polyline fill="none" stroke="black" points="285.5,207.5 400.5,207.5 "/>
<polyline fill="none" stroke="black" points="285.5,231.5 400.5,231.5 "/>
<text text-anchor="start" x="293.5" y="246.7" font-family="Times,serif" font-size="14.00">_layout</text>
<text text-anchor="start" x="293.5" y="261.7" font-family="Times,serif" font-size="14.00">group_params</text>
<text text-anchor="start" x="293.5" y="276.7" font-family="Times,serif" font-size="14.00">set_group</text>
</g>
<!-- GrouptypesController -->
<g id="node7" class="node"><title>GrouptypesController</title>
<path fill="none" stroke="black" d="M145.5,-133.5C145.5,-133.5 260.5,-133.5 260.5,-133.5 266.5,-133.5 272.5,-139.5 272.5,-145.5 272.5,-145.5 272.5,-334.5 272.5,-334.5 272.5,-340.5 266.5,-346.5 260.5,-346.5 260.5,-346.5 145.5,-346.5 145.5,-346.5 139.5,-346.5 133.5,-340.5 133.5,-334.5 133.5,-334.5 133.5,-145.5 133.5,-145.5 133.5,-139.5 139.5,-133.5 145.5,-133.5"/>
<text text-anchor="middle" x="203" y="-331.3" font-family="Times,serif" font-size="14.00">GrouptypesController</text>
<polyline fill="none" stroke="black" points="133.5,-323.5 272.5,-323.5 "/>
<text text-anchor="start" x="141.5" y="-308.3" font-family="Times,serif" font-size="14.00">create</text>
<text text-anchor="start" x="141.5" y="-293.3" font-family="Times,serif" font-size="14.00">destroy</text>
<text text-anchor="start" x="141.5" y="-278.3" font-family="Times,serif" font-size="14.00">edit</text>
<text text-anchor="start" x="141.5" y="-263.3" font-family="Times,serif" font-size="14.00">index</text>
<text text-anchor="start" x="141.5" y="-248.3" font-family="Times,serif" font-size="14.00">new</text>
<text text-anchor="start" x="141.5" y="-233.3" font-family="Times,serif" font-size="14.00">show</text>
<text text-anchor="start" x="141.5" y="-218.3" font-family="Times,serif" font-size="14.00">update</text>
<polyline fill="none" stroke="black" points="133.5,-210.5 272.5,-210.5 "/>
<polyline fill="none" stroke="black" points="133.5,-186.5 272.5,-186.5 "/>
<text text-anchor="start" x="141.5" y="-171.3" font-family="Times,serif" font-size="14.00">_layout</text>
<text text-anchor="start" x="141.5" y="-156.3" font-family="Times,serif" font-size="14.00">grouptype_params</text>
<text text-anchor="start" x="141.5" y="-141.3" font-family="Times,serif" font-size="14.00">set_grouptype</text>
</g>
<!-- ItemgroupsController -->
<g id="node8" class="node"><title>ItemgroupsController</title>
<path fill="none" stroke="black" d="M-26,-133.5C-26,-133.5 88,-133.5 88,-133.5 94,-133.5 100,-139.5 100,-145.5 100,-145.5 100,-334.5 100,-334.5 100,-340.5 94,-346.5 88,-346.5 88,-346.5 -26,-346.5 -26,-346.5 -32,-346.5 -38,-340.5 -38,-334.5 -38,-334.5 -38,-145.5 -38,-145.5 -38,-139.5 -32,-133.5 -26,-133.5"/>
<text text-anchor="middle" x="31" y="-331.3" font-family="Times,serif" font-size="14.00">ItemgroupsController</text>
<polyline fill="none" stroke="black" points="-38,-323.5 100,-323.5 "/>
<text text-anchor="start" x="-30" y="-308.3" font-family="Times,serif" font-size="14.00">create</text>
<text text-anchor="start" x="-30" y="-293.3" font-family="Times,serif" font-size="14.00">destroy</text>
<text text-anchor="start" x="-30" y="-278.3" font-family="Times,serif" font-size="14.00">edit</text>
<text text-anchor="start" x="-30" y="-263.3" font-family="Times,serif" font-size="14.00">index</text>
<text text-anchor="start" x="-30" y="-248.3" font-family="Times,serif" font-size="14.00">new</text>
<text text-anchor="start" x="-30" y="-233.3" font-family="Times,serif" font-size="14.00">show</text>
<text text-anchor="start" x="-30" y="-218.3" font-family="Times,serif" font-size="14.00">update</text>
<polyline fill="none" stroke="black" points="-38,-210.5 100,-210.5 "/>
<polyline fill="none" stroke="black" points="-38,-186.5 100,-186.5 "/>
<text text-anchor="start" x="-30" y="-171.3" font-family="Times,serif" font-size="14.00">_layout</text>
<text text-anchor="start" x="-30" y="-156.3" font-family="Times,serif" font-size="14.00">itemgroup_params</text>
<text text-anchor="start" x="-30" y="-141.3" font-family="Times,serif" font-size="14.00">set_itemgroup</text>
</g>
<!-- ItemsController -->
<g id="node9" class="node"><title>ItemsController</title>
<path fill="none" stroke="black" d="M316.5,37.5C316.5,37.5 397.5,37.5 397.5,37.5 403.5,37.5 409.5,31.5 409.5,25.5 409.5,25.5 409.5,-163.5 409.5,-163.5 409.5,-169.5 403.5,-175.5 397.5,-175.5 397.5,-175.5 316.5,-175.5 316.5,-175.5 310.5,-175.5 304.5,-169.5 304.5,-163.5 304.5,-163.5 304.5,25.5 304.5,25.5 304.5,31.5 310.5,37.5 316.5,37.5"/>
<text text-anchor="middle" x="357" y="-160.3" font-family="Times,serif" font-size="14.00">ItemsController</text>
<polyline fill="none" stroke="black" points="304.5,-152.5 409.5,-152.5 "/>
<text text-anchor="start" x="312.5" y="-137.3" font-family="Times,serif" font-size="14.00">create</text>
<text text-anchor="start" x="312.5" y="-122.3" font-family="Times,serif" font-size="14.00">destroy</text>
<text text-anchor="start" x="312.5" y="-107.3" font-family="Times,serif" font-size="14.00">edit</text>
<text text-anchor="start" x="312.5" y="-92.3" font-family="Times,serif" font-size="14.00">index</text>
<text text-anchor="start" x="312.5" y="-77.3" font-family="Times,serif" font-size="14.00">new</text>
<text text-anchor="start" x="312.5" y="-62.3" font-family="Times,serif" font-size="14.00">show</text>
<text text-anchor="start" x="312.5" y="-47.3" font-family="Times,serif" font-size="14.00">update</text>
<polyline fill="none" stroke="black" points="304.5,-39.5 409.5,-39.5 "/>
<polyline fill="none" stroke="black" points="304.5,-15.5 409.5,-15.5 "/>
<text text-anchor="start" x="312.5" y="-0.3" font-family="Times,serif" font-size="14.00">_layout</text>
<text text-anchor="start" x="312.5" y="14.7" font-family="Times,serif" font-size="14.00">item_params</text>
<text text-anchor="start" x="312.5" y="29.7" font-family="Times,serif" font-size="14.00">set_item</text>
</g>
<!-- LocationsController -->
<g id="node10" class="node"><title>LocationsController</title>
<path fill="none" stroke="black" d="M-234.5,18.5C-234.5,18.5 -129.5,18.5 -129.5,18.5 -123.5,18.5 -117.5,12.5 -117.5,6.5 -117.5,6.5 -117.5,-182.5 -117.5,-182.5 -117.5,-188.5 -123.5,-194.5 -129.5,-194.5 -129.5,-194.5 -234.5,-194.5 -234.5,-194.5 -240.5,-194.5 -246.5,-188.5 -246.5,-182.5 -246.5,-182.5 -246.5,6.5 -246.5,6.5 -246.5,12.5 -240.5,18.5 -234.5,18.5"/>
<text text-anchor="middle" x="-182" y="-179.3" font-family="Times,serif" font-size="14.00">LocationsController</text>
<polyline fill="none" stroke="black" points="-246.5,-171.5 -117.5,-171.5 "/>
<text text-anchor="start" x="-238.5" y="-156.3" font-family="Times,serif" font-size="14.00">create</text>
<text text-anchor="start" x="-238.5" y="-141.3" font-family="Times,serif" font-size="14.00">destroy</text>
<text text-anchor="start" x="-238.5" y="-126.3" font-family="Times,serif" font-size="14.00">edit</text>
<text text-anchor="start" x="-238.5" y="-111.3" font-family="Times,serif" font-size="14.00">index</text>
<text text-anchor="start" x="-238.5" y="-96.3" font-family="Times,serif" font-size="14.00">new</text>
<text text-anchor="start" x="-238.5" y="-81.3" font-family="Times,serif" font-size="14.00">show</text>
<text text-anchor="start" x="-238.5" y="-66.3" font-family="Times,serif" font-size="14.00">update</text>
<polyline fill="none" stroke="black" points="-246.5,-58.5 -117.5,-58.5 "/>
<polyline fill="none" stroke="black" points="-246.5,-34.5 -117.5,-34.5 "/>
<text text-anchor="start" x="-238.5" y="-19.3" font-family="Times,serif" font-size="14.00">_layout</text>
<text text-anchor="start" x="-238.5" y="-4.3" font-family="Times,serif" font-size="14.00">location_params</text>
<text text-anchor="start" x="-238.5" y="10.7" font-family="Times,serif" font-size="14.00">set_location</text>
</g>
<!-- LocationtypesController -->
<g id="node11" class="node"><title>LocationtypesController</title>
<path fill="none" stroke="black" d="M-215.5,-228.5C-215.5,-228.5 -86.5,-228.5 -86.5,-228.5 -80.5,-228.5 -74.5,-234.5 -74.5,-240.5 -74.5,-240.5 -74.5,-429.5 -74.5,-429.5 -74.5,-435.5 -80.5,-441.5 -86.5,-441.5 -86.5,-441.5 -215.5,-441.5 -215.5,-441.5 -221.5,-441.5 -227.5,-435.5 -227.5,-429.5 -227.5,-429.5 -227.5,-240.5 -227.5,-240.5 -227.5,-234.5 -221.5,-228.5 -215.5,-228.5"/>
<text text-anchor="middle" x="-151" y="-426.3" font-family="Times,serif" font-size="14.00">LocationtypesController</text>
<polyline fill="none" stroke="black" points="-227.5,-418.5 -74.5,-418.5 "/>
<text text-anchor="start" x="-219.5" y="-403.3" font-family="Times,serif" font-size="14.00">create</text>
<text text-anchor="start" x="-219.5" y="-388.3" font-family="Times,serif" font-size="14.00">destroy</text>
<text text-anchor="start" x="-219.5" y="-373.3" font-family="Times,serif" font-size="14.00">edit</text>
<text text-anchor="start" x="-219.5" y="-358.3" font-family="Times,serif" font-size="14.00">index</text>
<text text-anchor="start" x="-219.5" y="-343.3" font-family="Times,serif" font-size="14.00">new</text>
<text text-anchor="start" x="-219.5" y="-328.3" font-family="Times,serif" font-size="14.00">show</text>
<text text-anchor="start" x="-219.5" y="-313.3" font-family="Times,serif" font-size="14.00">update</text>
<polyline fill="none" stroke="black" points="-227.5,-305.5 -74.5,-305.5 "/>
<polyline fill="none" stroke="black" points="-227.5,-281.5 -74.5,-281.5 "/>
<text text-anchor="start" x="-219.5" y="-266.3" font-family="Times,serif" font-size="14.00">_layout</text>
<text text-anchor="start" x="-219.5" y="-251.3" font-family="Times,serif" font-size="14.00">locationtype_params</text>
<text text-anchor="start" x="-219.5" y="-236.3" font-family="Times,serif" font-size="14.00">set_locationtype</text>
</g>
<!-- SubcategoriesController -->
<g id="node12" class="node"><title>SubcategoriesController</title>
<path fill="none" stroke="black" d="M-63.5,113.5C-63.5,113.5 65.5,113.5 65.5,113.5 71.5,113.5 77.5,107.5 77.5,101.5 77.5,101.5 77.5,-87.5 77.5,-87.5 77.5,-93.5 71.5,-99.5 65.5,-99.5 65.5,-99.5 -63.5,-99.5 -63.5,-99.5 -69.5,-99.5 -75.5,-93.5 -75.5,-87.5 -75.5,-87.5 -75.5,101.5 -75.5,101.5 -75.5,107.5 -69.5,113.5 -63.5,113.5"/>
<text text-anchor="middle" x="1" y="-84.3" font-family="Times,serif" font-size="14.00">SubcategoriesController</text>
<polyline fill="none" stroke="black" points="-75.5,-76.5 77.5,-76.5 "/>
<text text-anchor="start" x="-67.5" y="-61.3" font-family="Times,serif" font-size="14.00">create</text>
<text text-anchor="start" x="-67.5" y="-46.3" font-family="Times,serif" font-size="14.00">destroy</text>
<text text-anchor="start" x="-67.5" y="-31.3" font-family="Times,serif" font-size="14.00">edit</text>
<text text-anchor="start" x="-67.5" y="-16.3" font-family="Times,serif" font-size="14.00">index</text>
<text text-anchor="start" x="-67.5" y="-1.3" font-family="Times,serif" font-size="14.00">new</text>
<text text-anchor="start" x="-67.5" y="13.7" font-family="Times,serif" font-size="14.00">show</text>
<text text-anchor="start" x="-67.5" y="28.7" font-family="Times,serif" font-size="14.00">update</text>
<polyline fill="none" stroke="black" points="-75.5,36.5 77.5,36.5 "/>
<polyline fill="none" stroke="black" points="-75.5,60.5 77.5,60.5 "/>
<text text-anchor="start" x="-67.5" y="75.7" font-family="Times,serif" font-size="14.00">_layout</text>
<text text-anchor="start" x="-67.5" y="90.7" font-family="Times,serif" font-size="14.00">set_subcategory</text>
<text text-anchor="start" x="-67.5" y="105.7" font-family="Times,serif" font-size="14.00">subcategory_params</text>
</g>
</g>
</svg>
