<?xml version="1.0" encoding="UTF-8" standalone="no"?>
<!DOCTYPE svg PUBLIC "-//W3C//DTD SVG 1.1//EN"
 "http://www.w3.org/Graphics/SVG/1.1/DTD/svg11.dtd">
<!-- Generated by graphviz version 2.38.0 (20140413.2041)
 -->
<!-- Title: models_diagram Pages: 1 -->
<svg width="976pt" height="258pt"
 viewBox="0.00 0.00 976.00 258.00" xmlns="http://www.w3.org/2000/svg" xmlns:xlink="http://www.w3.org/1999/xlink">
<g id="graph0" class="graph" transform="scale(1 1) rotate(0) translate(4 254)">
<title>models_diagram</title>
<polygon fill="none" stroke="none" points="-4,4 -4,-254 972,-254 972,4 -4,4"/>
<!-- _diagram_info -->
<g id="node1" class="node"><title>_diagram_info</title>
<text text-anchor="start" x="8" y="-213.6" font-family="Times,serif" font-size="13.00">Models diagram</text>
<text text-anchor="start" x="8" y="-199.6" font-family="Times,serif" font-size="13.00">Date: Jun 22 2016 &#45; 16:56</text>
<text text-anchor="start" x="8" y="-185.6" font-family="Times,serif" font-size="13.00">Migration version: 20160611205355</text>
<text text-anchor="start" x="8" y="-171.6" font-family="Times,serif" font-size="13.00">Generated by RailRoady 1.4.2</text>
<text text-anchor="start" x="8" y="-157.6" font-family="Times,serif" font-size="13.00">http://railroady.prestonlee.com</text>
</g>
<!-- Deal -->
<g id="node2" class="node"><title>Deal</title>
<path fill="none" stroke="black" d="M238,-128.5C238,-128.5 348,-128.5 348,-128.5 354,-128.5 360,-134.5 360,-140.5 360,-140.5 360,-237.5 360,-237.5 360,-243.5 354,-249.5 348,-249.5 348,-249.5 238,-249.5 238,-249.5 232,-249.5 226,-243.5 226,-237.5 226,-237.5 226,-140.5 226,-140.5 226,-134.5 232,-128.5 238,-128.5"/>
<text text-anchor="middle" x="293" y="-234.3" font-family="Times,serif" font-size="14.00">Deal</text>
<polyline fill="none" stroke="black" points="226,-226.5 360,-226.5 "/>
<text text-anchor="start" x="234" y="-211.3" font-family="Times,serif" font-size="14.00">id :INTEGER</text>
<text text-anchor="start" x="234" y="-196.3" font-family="Times,serif" font-size="14.00">location :varchar</text>
<text text-anchor="start" x="234" y="-181.3" font-family="Times,serif" font-size="14.00">price :decimal</text>
<text text-anchor="start" x="234" y="-166.3" font-family="Times,serif" font-size="14.00">endDate :date</text>
<text text-anchor="start" x="234" y="-151.3" font-family="Times,serif" font-size="14.00">created_at :datetime</text>
<text text-anchor="start" x="234" y="-136.3" font-family="Times,serif" font-size="14.00">updated_at :datetime</text>
</g>
<!-- Group -->
<g id="node3" class="node"><title>Group</title>
<path fill="none" stroke="black" d="M390,-143.5C390,-143.5 500,-143.5 500,-143.5 506,-143.5 512,-149.5 512,-155.5 512,-155.5 512,-222.5 512,-222.5 512,-228.5 506,-234.5 500,-234.5 500,-234.5 390,-234.5 390,-234.5 384,-234.5 378,-228.5 378,-222.5 378,-222.5 378,-155.5 378,-155.5 378,-149.5 384,-143.5 390,-143.5"/>
<text text-anchor="middle" x="445" y="-219.3" font-family="Times,serif" font-size="14.00">Group</text>
<polyline fill="none" stroke="black" points="378,-211.5 512,-211.5 "/>
<text text-anchor="start" x="386" y="-196.3" font-family="Times,serif" font-size="14.00">id :INTEGER</text>
<text text-anchor="start" x="386" y="-181.3" font-family="Times,serif" font-size="14.00">name :varchar</text>
<text text-anchor="start" x="386" y="-166.3" font-family="Times,serif" font-size="14.00">created_at :datetime</text>
<text text-anchor="start" x="386" y="-151.3" font-family="Times,serif" font-size="14.00">updated_at :datetime</text>
</g>
<!-- Item -->
<g id="node6" class="node"><title>Item</title>
<path fill="none" stroke="black" d="M390,-0.5C390,-0.5 500,-0.5 500,-0.5 506,-0.5 512,-6.5 512,-12.5 512,-12.5 512,-79.5 512,-79.5 512,-85.5 506,-91.5 500,-91.5 500,-91.5 390,-91.5 390,-91.5 384,-91.5 378,-85.5 378,-79.5 378,-79.5 378,-12.5 378,-12.5 378,-6.5 384,-0.5 390,-0.5"/>
<text text-anchor="middle" x="445" y="-76.3" font-family="Times,serif" font-size="14.00">Item</text>
<polyline fill="none" stroke="black" points="378,-68.5 512,-68.5 "/>
<text text-anchor="start" x="386" y="-53.3" font-family="Times,serif" font-size="14.00">id :INTEGER</text>
<text text-anchor="start" x="386" y="-38.3" font-family="Times,serif" font-size="14.00">name :varchar</text>
<text text-anchor="start" x="386" y="-23.3" font-family="Times,serif" font-size="14.00">created_at :datetime</text>
<text text-anchor="start" x="386" y="-8.3" font-family="Times,serif" font-size="14.00">updated_at :datetime</text>
</g>
<!-- Group&#45;&gt;Item -->
<g id="edge1" class="edge"><title>Group&#45;&gt;Item</title>
<path fill="none" stroke="#d104d5" d="M445,-133.123C445,-122.863 445,-112.138 445,-101.878"/>
<polygon fill="#d104d5" stroke="#d104d5" points="445,-133.387 440.5,-143.387 445,-138.387 445,-143.387 445,-143.387 445,-143.387 445,-138.387 449.5,-143.387 445,-133.387 445,-133.387"/>
<polygon fill="#d104d5" stroke="#d104d5" points="445,-101.807 449.5,-91.807 445,-96.807 445,-91.807 445,-91.807 445,-91.807 445,-96.807 440.5,-91.8071 445,-101.807 445,-101.807"/>
</g>
<!-- Groupitem -->
<g id="node4" class="node"><title>Groupitem</title>
<path fill="none" stroke="black" d="M542,-136C542,-136 652,-136 652,-136 658,-136 664,-142 664,-148 664,-148 664,-230 664,-230 664,-236 658,-242 652,-242 652,-242 542,-242 542,-242 536,-242 530,-236 530,-230 530,-230 530,-148 530,-148 530,-142 536,-136 542,-136"/>
<text text-anchor="middle" x="597" y="-226.8" font-family="Times,serif" font-size="14.00">Groupitem</text>
<polyline fill="none" stroke="black" points="530,-219 664,-219 "/>
<text text-anchor="start" x="538" y="-203.8" font-family="Times,serif" font-size="14.00">id :INTEGER</text>
<text text-anchor="start" x="538" y="-188.8" font-family="Times,serif" font-size="14.00">item_id :integer</text>
<text text-anchor="start" x="538" y="-173.8" font-family="Times,serif" font-size="14.00">group_id :integer</text>
<text text-anchor="start" x="538" y="-158.8" font-family="Times,serif" font-size="14.00">created_at :datetime</text>
<text text-anchor="start" x="538" y="-143.8" font-family="Times,serif" font-size="14.00">updated_at :datetime</text>
</g>
<!-- Grouptype -->
<g id="node5" class="node"><title>Grouptype</title>
<path fill="none" stroke="black" d="M694,-143.5C694,-143.5 804,-143.5 804,-143.5 810,-143.5 816,-149.5 816,-155.5 816,-155.5 816,-222.5 816,-222.5 816,-228.5 810,-234.5 804,-234.5 804,-234.5 694,-234.5 694,-234.5 688,-234.5 682,-228.5 682,-222.5 682,-222.5 682,-155.5 682,-155.5 682,-149.5 688,-143.5 694,-143.5"/>
<text text-anchor="middle" x="749" y="-219.3" font-family="Times,serif" font-size="14.00">Grouptype</text>
<polyline fill="none" stroke="black" points="682,-211.5 816,-211.5 "/>
<text text-anchor="start" x="690" y="-196.3" font-family="Times,serif" font-size="14.00">id :INTEGER</text>
<text text-anchor="start" x="690" y="-181.3" font-family="Times,serif" font-size="14.00">name :varchar</text>
<text text-anchor="start" x="690" y="-166.3" font-family="Times,serif" font-size="14.00">created_at :datetime</text>
<text text-anchor="start" x="690" y="-151.3" font-family="Times,serif" font-size="14.00">updated_at :datetime</text>
</g>
<!-- Location -->
<g id="node7" class="node"><title>Location</title>
<path fill="none" stroke="black" d="M846,-143.5C846,-143.5 956,-143.5 956,-143.5 962,-143.5 968,-149.5 968,-155.5 968,-155.5 968,-222.5 968,-222.5 968,-228.5 962,-234.5 956,-234.5 956,-234.5 846,-234.5 846,-234.5 840,-234.5 834,-228.5 834,-222.5 834,-222.5 834,-155.5 834,-155.5 834,-149.5 840,-143.5 846,-143.5"/>
<text text-anchor="middle" x="901" y="-219.3" font-family="Times,serif" font-size="14.00">Location</text>
<polyline fill="none" stroke="black" points="834,-211.5 968,-211.5 "/>
<text text-anchor="start" x="842" y="-196.3" font-family="Times,serif" font-size="14.00">id :INTEGER</text>
<text text-anchor="start" x="842" y="-181.3" font-family="Times,serif" font-size="14.00">created_at :datetime</text>
<text text-anchor="start" x="842" y="-166.3" font-family="Times,serif" font-size="14.00">updated_at :datetime</text>
<text text-anchor="start" x="842" y="-151.3" font-family="Times,serif" font-size="14.00">name :varchar</text>
</g>
</g>
</svg>
