<?xml version="1.0" encoding="UTF-8" standalone="no"?>
<!DOCTYPE svg PUBLIC "-//W3C//DTD SVG 1.1//EN"
 "http://www.w3.org/Graphics/SVG/1.1/DTD/svg11.dtd">
<!-- Generated by graphviz version 2.38.0 (20140413.2041)
 -->
<!-- Title: models_diagram Pages: 1 -->
<svg width="1064pt" height="158pt"
 viewBox="0.00 0.00 1063.90 158.00" xmlns="http://www.w3.org/2000/svg" xmlns:xlink="http://www.w3.org/1999/xlink">
<g id="graph0" class="graph" transform="scale(1 1) rotate(0) translate(4 154)">
<title>models_diagram</title>
<polygon fill="none" stroke="none" points="-4,4 -4,-154 1059.9,-154 1059.9,4 -4,4"/>
<!-- _diagram_info -->
<g id="node1" class="node"><title>_diagram_info</title>
<text text-anchor="start" x="8" y="-135.6" font-family="Times,serif" font-size="13.00">Models diagram</text>
<text text-anchor="start" x="8" y="-121.6" font-family="Times,serif" font-size="13.00">Date: Jun 22 2016 &#45; 16:56</text>
<text text-anchor="start" x="8" y="-107.6" font-family="Times,serif" font-size="13.00">Migration version: 20160611205355</text>
<text text-anchor="start" x="8" y="-93.6" font-family="Times,serif" font-size="13.00">Generated by RailRoady 1.4.2</text>
<text text-anchor="start" x="8" y="-79.6" font-family="Times,serif" font-size="13.00">http://railroady.prestonlee.com</text>
</g>
<!-- Deal -->
<g id="node2" class="node"><title>Deal</title>
<ellipse fill="none" stroke="black" cx="254" cy="-111" rx="27.8951" ry="18"/>
<text text-anchor="middle" x="254" y="-107.3" font-family="Times,serif" font-size="14.00">Deal</text>
</g>
<!-- Dealtype -->
<g id="node3" class="node"><title>Dealtype</title>
<ellipse fill="none" stroke="black" cx="343" cy="-111" rx="43.5923" ry="18"/>
<text text-anchor="middle" x="343" y="-107.3" font-family="Times,serif" font-size="14.00">Dealtype</text>
</g>
<!-- Group -->
<g id="node4" class="node"><title>Group</title>
<ellipse fill="none" stroke="black" cx="438" cy="-111" rx="33.5952" ry="18"/>
<text text-anchor="middle" x="438" y="-107.3" font-family="Times,serif" font-size="14.00">Group</text>
</g>
<!-- Item -->
<g id="node7" class="node"><title>Item</title>
<ellipse fill="none" stroke="black" cx="438" cy="-18" rx="27.0966" ry="18"/>
<text text-anchor="middle" x="438" y="-14.3" font-family="Times,serif" font-size="14.00">Item</text>
</g>
<!-- Group&#45;&gt;Item -->
<g id="edge1" class="edge"><title>Group&#45;&gt;Item</title>
<path fill="none" stroke="#104d18" d="M438,-82.5485C438,-71.0829 438,-57.7923 438,-46.3387"/>
<polygon fill="#104d18" stroke="#104d18" points="438,-82.8836 433.5,-92.8836 438,-87.8836 438,-92.8836 438,-92.8836 438,-92.8836 438,-87.8836 442.5,-92.8836 438,-82.8836 438,-82.8836"/>
<polygon fill="#104d18" stroke="#104d18" points="438,-46.0397 442.5,-36.0396 438,-41.0397 438,-36.0397 438,-36.0397 438,-36.0397 438,-41.0397 433.5,-36.0397 438,-46.0397 438,-46.0397"/>
</g>
<!-- Groupitem -->
<g id="node5" class="node"><title>Groupitem</title>
<ellipse fill="none" stroke="black" cx="540" cy="-111" rx="50.0912" ry="18"/>
<text text-anchor="middle" x="540" y="-107.3" font-family="Times,serif" font-size="14.00">Groupitem</text>
</g>
<!-- Grouptype -->
<g id="node6" class="node"><title>Grouptype</title>
<ellipse fill="none" stroke="black" cx="657" cy="-111" rx="49.2915" ry="18"/>
<text text-anchor="middle" x="657" y="-107.3" font-family="Times,serif" font-size="14.00">Grouptype</text>
</g>
<!-- Itemgroup -->
<g id="node8" class="node"><title>Itemgroup</title>
<ellipse fill="none" stroke="black" cx="773" cy="-111" rx="48.9926" ry="18"/>
<text text-anchor="middle" x="773" y="-107.3" font-family="Times,serif" font-size="14.00">Itemgroup</text>
</g>
<!-- Location -->
<g id="node9" class="node"><title>Location</title>
<ellipse fill="none" stroke="black" cx="883" cy="-111" rx="42.7926" ry="18"/>
<text text-anchor="middle" x="883" y="-107.3" font-family="Times,serif" font-size="14.00">Location</text>
</g>
<!-- Subcategory -->
<g id="node10" class="node"><title>Subcategory</title>
<ellipse fill="none" stroke="black" cx="1000" cy="-111" rx="55.7903" ry="18"/>
<text text-anchor="middle" x="1000" y="-107.3" font-family="Times,serif" font-size="14.00">Subcategory</text>
</g>
</g>
</svg>
